<svg width="25" height="24" viewBox="0 0 25 24" fill="none" xmlns="http://www.w3.org/2000/svg">
<g id="md-mic">
<path id="Vector" d="M12.5 15C14.2677 15 15.7143 13.5504 15.7143 11.779V4.72097C15.7143 2.94956 14.2677 1.5 12.5 1.5C10.7322 1.5 9.28573 2.94956 9.28573 4.72097V11.779C9.28573 13.5504 10.7322 15 12.5 15ZM18.1784 11.4632C18.1784 14.6842 15.4464 16.9389 12.5 16.9389C9.55358 16.9389 6.82161 14.6841 6.82161 11.4632H5C5 15.1135 7.89308 18.1735 11.4286 18.6569V22.5H13.5714V18.6569C17.1069 18.12 20 15.1135 20 11.4632H18.1784Z" fill="#0D0B59"/>
</g>
</svg>
